REM DIRINDEX 1\3,1\2\4,1\2\5,1\2\6
REM DIRNAME folder01,folder02,folder03,folder04,folder05,folder06
TITLE ""
FILE "103.mp3" MP3
  TRACK 01 AUDIO
    TITLE "4:cjc137_4245"
    INDEX 01 00:00:00
  TRACK 02 AUDIO
    TITLE "0:"
    INDEX 01 00:01:17
  TRACK 03 AUDIO
    TITLE "6:cjc137_4246"
    INDEX 01 00:01:26
  TRACK 04 AUDIO
    TITLE "0:"
    INDEX 01 00:02:32
  TRACK 05 AUDIO
    TITLE "5:cjc137_4247"
    INDEX 01 00:02:40
  TRACK 06 AUDIO
    TITLE "0:"
    INDEX 01 00:03:59
  TRACK 07 AUDIO
    TITLE "4:cjc137_4248"
    INDEX 01 00:04:68
  TRACK 08 AUDIO
    TITLE "0:"
    INDEX 01 00:06:33
  TRACK 09 AUDIO
    TITLE "6:cjc137_4249"
    INDEX 01 00:06:39
  TRACK 10 AUDIO
    TITLE "0:"
    INDEX 01 00:07:62
  TRACK 11 AUDIO
    TITLE "5:cjc137_4250"
    INDEX 01 00:07:68
  TRACK 12 AUDIO
    TITLE "0:"
    INDEX 01 00:09:32
  TRACK 13 AUDIO
    TITLE "4:cjc137_4251"
    INDEX 01 00:10:41
  TRACK 14 AUDIO
    TITLE "0:"
    INDEX 01 00:11:68
  TRACK 15 AUDIO
    TITLE "6:cjc137_4252"
    INDEX 01 00:12:01
  TRACK 16 AUDIO
    TITLE "0:"
    INDEX 01 00:12:69
  TRACK 17 AUDIO
    TITLE "5:cjc137_4253"
    INDEX 01 00:12:73
  TRACK 18 AUDIO
    TITLE "0:"
    INDEX 01 00:14:27
  TRACK 19 AUDIO
    TITLE "4:cjc137_4254"
    INDEX 01 00:15:34
  TRACK 20 AUDIO
    TITLE "0:"
    INDEX 01 00:16:59
  TRACK 21 AUDIO
    TITLE "6:cjc137_4255"
    INDEX 01 00:16:65
  TRACK 22 AUDIO
    TITLE "0:"
    INDEX 01 00:18:23
  TRACK 23 AUDIO
    TITLE "5:cjc137_4256"
    INDEX 01 00:18:29
  TRACK 24 AUDIO
    TITLE "0:"
    INDEX 01 00:19:54
  TRACK 25 AUDIO
    TITLE "4:cjc137_4257"
    INDEX 01 00:20:61
  TRACK 26 AUDIO
    TITLE "0:"
    INDEX 01 00:22:11
  TRACK 27 AUDIO
    TITLE "6:cjc137_4258"
    INDEX 01 00:22:21
  TRACK 28 AUDIO
    TITLE "0:"
    INDEX 01 00:23:38
  TRACK 29 AUDIO
    TITLE "5:cjc137_4259"
    INDEX 01 00:23:46
  TRACK 30 AUDIO
    TITLE "0:"
    INDEX 01 00:24:69
  TRACK 31 AUDIO
    TITLE "4:cjc137_4260"
    INDEX 01 00:26:05
  TRACK 32 AUDIO
    TITLE "0:"
    INDEX 01 00:27:26
  TRACK 33 AUDIO
    TITLE "6:cjc137_4261"
    INDEX 01 00:27:38
  TRACK 34 AUDIO
    TITLE "0:"
    INDEX 01 00:28:57
  TRACK 35 AUDIO
    TITLE "5:cjc137_4262"
    INDEX 01 00:28:64
  TRACK 36 AUDIO
    TITLE "0:"
    INDEX 01 00:30:12
  TRACK 37 AUDIO
    TITLE "4:cjc137_4263"
    INDEX 01 00:31:22
  TRACK 38 AUDIO
    TITLE "0:"
    INDEX 01 00:32:48
  TRACK 39 AUDIO
    TITLE "6:cjc137_4264"
    INDEX 01 00:32:54
  TRACK 40 AUDIO
    TITLE "0:"
    INDEX 01 00:34:06
  TRACK 41 AUDIO
    TITLE "5:cjc137_4265"
    INDEX 01 00:34:10
  TRACK 42 AUDIO
    TITLE "0:"
    INDEX 01 00:35:39
  TRACK 43 AUDIO
    TITLE "4:cjc137_4266"
    INDEX 01 00:36:46
  TRACK 44 AUDIO
    TITLE "0:"
    INDEX 01 00:37:69
  TRACK 45 AUDIO
    TITLE "6:cjc137_4267"
    INDEX 01 00:38:00
  TRACK 46 AUDIO
    TITLE "0:"
    INDEX 01 00:39:27
  TRACK 47 AUDIO
    TITLE "5:cjc137_4268"
    INDEX 01 00:39:31
  TRACK 48 AUDIO
    TITLE "0:"
    INDEX 01 00:40:56
  TRACK 49 AUDIO
    TITLE "4:cjc137_4269"
    INDEX 01 00:41:65
  TRACK 50 AUDIO
    TITLE "0:"
    INDEX 01 00:43:21
  TRACK 51 AUDIO
    TITLE "6:cjc137_4270"
    INDEX 01 00:43:29
  TRACK 52 AUDIO
    TITLE "0:"
    INDEX 01 00:44:56
  TRACK 53 AUDIO
    TITLE "5:cjc137_4271"
    INDEX 01 00:44:63
  TRACK 54 AUDIO
    TITLE "0:"
    INDEX 01 00:46:17
  TRACK 55 AUDIO
    TITLE "4:cjc137_4272"
    INDEX 01 00:47:27
  TRACK 56 AUDIO
    TITLE "0:"
    INDEX 01 00:48:63
  TRACK 57 AUDIO
    TITLE "6:cjc137_4273"
    INDEX 01 00:48:71
  TRACK 58 AUDIO
    TITLE "0:"
    INDEX 01 00:50:09
  TRACK 59 AUDIO
    TITLE "5:cjc137_4274"
    INDEX 01 00:50:15
  TRACK 60 AUDIO
    TITLE "0:"
    INDEX 01 00:51:50
  TRACK 61 AUDIO
    TITLE "4:cjc137_4275"
    INDEX 01 00:52:59
  TRACK 62 AUDIO
    TITLE "0:"
    INDEX 01 00:53:72
  TRACK 63 AUDIO
    TITLE "6:cjc137_4276"
    INDEX 01 00:54:01
  TRACK 64 AUDIO
    TITLE "0:"
    INDEX 01 00:54:72
  TRACK 65 AUDIO
    TITLE "5:cjc137_4277"
    INDEX 01 00:55:08
  TRACK 66 AUDIO
    TITLE "0:"
    INDEX 01 00:56:20
  TRACK 67 AUDIO
    TITLE "4:cjc137_4278"
    INDEX 01 00:57:27
  TRACK 68 AUDIO
    TITLE "0:"
    INDEX 01 00:58:38
  TRACK 69 AUDIO
    TITLE "6:cjc137_4279"
    INDEX 01 00:58:44
  TRACK 70 AUDIO
    TITLE "0:"
    INDEX 01 01:00:12
  TRACK 71 AUDIO
    TITLE "5:cjc137_4280"
    INDEX 01 01:00:15
  TRACK 72 AUDIO
    TITLE "0:"
    INDEX 01 01:01:27
  TRACK 73 AUDIO
    TITLE "4:cjc137_4281"
    INDEX 01 01:02:34
  TRACK 74 AUDIO
    TITLE "0:"
    INDEX 01 01:03:53
  TRACK 75 AUDIO
    TITLE "6:cjc137_4282"
    INDEX 01 01:03:63
  TRACK 76 AUDIO
    TITLE "0:"
    INDEX 01 01:04:74
  TRACK 77 AUDIO
    TITLE "5:cjc137_4283"
    INDEX 01 01:05:07
  TRACK 78 AUDIO
    TITLE "0:"
    INDEX 01 01:06:26
  TRACK 79 AUDIO
    TITLE "4:cjc137_4284"
    INDEX 01 01:07:35
  TRACK 80 AUDIO
    TITLE "0:"
    INDEX 01 01:08:48
  TRACK 81 AUDIO
    TITLE "6:cjc137_4285"
    INDEX 01 01:08:58
  TRACK 82 AUDIO
    TITLE "0:"
    INDEX 01 01:09:44
  TRACK 83 AUDIO
    TITLE "5:cjc137_4286"
    INDEX 01 01:09:48
  TRACK 84 AUDIO
    TITLE "0:"
    INDEX 01 01:10:59
